<svg width="120" height="100" viewBox="0 0 120 100" fill="none" xmlns="http://www.w3.org/2000/svg">
<rect width="120" height="100" rx="5.88235" fill="#B34E44"/>
<path fill-rule="evenodd" clip-rule="evenodd" d="M22.1354 90.3032C22.1354 90.6291 21.8188 90.8932 21.4285 90.8932H18.7801V7.0625C18.7801 6.41072 18.1472 5.88235 17.3664 5.88235H17.1898H14.0088H10.6537H6.58919C6.19874 5.88235 5.88232 6.14659 5.88232 6.47243V7.21007V93.5276C5.88232 93.8534 6.19874 94.1176 6.58919 94.1176H9.94683C10.3372 94.1176 10.6537 93.8534 10.6537 93.5276V9.10675H13.3019C13.6924 9.10675 14.0088 9.37089 14.0088 9.69682V92.9375C14.0088 93.5893 14.6418 94.1176 15.4226 94.1176H15.5993H18.7801H22.1354H26.1999C26.5902 94.1176 26.9067 93.8534 26.9067 93.5276V92.7899V6.47243C26.9067 6.14659 26.5902 5.88235 26.1999 5.88235H22.8422C22.4519 5.88235 22.1354 6.14659 22.1354 6.47243V90.3032Z" fill="white"/>
<path fill-rule="evenodd" clip-rule="evenodd" d="M39.6945 5.88239H34.6971H30.5663C30.1695 5.88239 29.8479 6.14662 29.8479 6.47246V7.2101V92.7899V93.5276C29.8479 93.8534 30.1695 94.1177 30.5663 94.1177H34.6971H39.6945H43.8253C44.222 94.1177 44.5436 93.8534 44.5436 93.5276V92.7899V51.9915V51.2539C44.5436 50.928 44.222 50.6639 43.8253 50.6639H39.6945H37.1957V52.2101C37.1957 52.5767 37.5576 52.8738 38.8863 52.8738H39.6945V90.3032C39.6945 90.6291 39.3728 90.8933 38.9761 90.8933H35.4154C35.0186 90.8933 34.6971 90.6291 34.6971 90.3032V9.69685C34.6971 9.37092 35.0186 9.10678 35.4154 9.10678H38.9761C39.3728 9.10678 39.6945 9.37092 39.6945 9.69685V48.7461C39.6945 49.072 40.0162 49.3362 40.4129 49.3362H43.8253C44.222 49.3362 44.5436 49.072 44.5436 48.7461V7.2101V6.47246C44.5436 6.14662 44.222 5.88239 43.8253 5.88239H39.6945Z" fill="white"/>
<path fill-rule="evenodd" clip-rule="evenodd" d="M60.6933 94.1177C61.0946 94.1177 61.4199 93.8534 61.4199 93.5276V7.06253C61.4199 6.41075 60.7693 5.88239 59.9667 5.88239H57.9685C57.166 5.88239 56.5154 6.41075 56.5154 7.06253V90.3032C56.5154 90.6291 56.1901 90.8933 55.7888 90.8933H53.1159C52.7146 90.8933 52.3892 90.6291 52.3892 90.3032V7.06253C52.3892 6.41075 51.7386 5.88239 50.936 5.88239H48.938C48.1354 5.88239 47.4848 6.41075 47.4848 7.06253V92.7899V93.5276C47.4848 93.8534 47.81 94.1177 48.2114 94.1177" fill="white"/>
<path fill-rule="evenodd" clip-rule="evenodd" d="M73.3917 45.5217C73.3917 45.8476 73.0663 46.1117 72.6651 46.1117H69.9921C69.5909 46.1117 69.2656 45.8476 69.2656 45.5217V6.47243C69.2656 6.14659 68.9403 5.88235 68.539 5.88235H65.0877C64.6864 5.88235 64.3611 6.14659 64.3611 6.47243V48.0084V48.156C64.3611 48.8078 65.0117 49.3361 65.8144 49.3361H69.2656H73.3917V90.3032C73.3917 90.6291 73.0663 90.8932 72.6651 90.8932H69.9921C69.5909 90.8932 69.2656 90.6291 69.2656 90.3032V51.844C69.2656 51.1922 68.615 50.6639 67.8124 50.6639H65.8144C65.0117 50.6639 64.3611 51.1922 64.3611 51.844V93.5276C64.3611 93.8534 64.6864 94.1176 65.0877 94.1176H65.9959H69.2656H73.3917H77.5696C77.9708 94.1176 78.2962 93.8534 78.2962 93.5276V92.7899V6.47243C78.2962 6.14659 77.9708 5.88235 77.5696 5.88235H74.1183C73.7171 5.88235 73.3917 6.14659 73.3917 6.47243V45.5217Z" fill="white"/>
<path fill-rule="evenodd" clip-rule="evenodd" d="M90.6085 9.27532V6.47243C90.6085 6.14659 90.2762 5.88235 89.8664 5.88235H86.2465H81.9794C81.5695 5.88235 81.2373 6.14659 81.2373 6.47243V9.8654V48.0085V51.9916V90.1346V93.5276C81.2373 93.8535 81.5695 94.1176 81.9794 94.1176H89.8664C90.2762 94.1176 90.6085 93.8535 90.6085 93.5276V90.7247C90.6085 90.3988 90.2762 90.1346 89.8664 90.1346H88.7533C88.3434 90.1346 86.2465 89.8705 86.2465 89.5445V52.5816C86.2465 52.2557 88.3434 51.9916 88.7533 51.9916H89.8664C90.2762 51.9916 90.6085 51.7273 90.6085 51.4015V48.5986C90.6085 48.2727 90.2762 48.0085 89.8664 48.0085H88.7533C88.3434 48.0085 86.2465 47.7443 86.2465 47.4184V10.4555C86.2465 10.1296 88.3434 9.8654 88.7533 9.8654H89.8664C90.2762 9.8654 90.6085 9.60117 90.6085 9.27532Z" fill="white"/>
<path fill-rule="evenodd" clip-rule="evenodd" d="M109.803 90.3032C109.803 90.6291 109.486 90.8932 109.096 90.8932H106.448V7.0625C106.448 6.41072 105.815 5.88235 105.034 5.88235H104.857H101.676H98.3211H94.2566C93.8662 5.88235 93.5497 6.14659 93.5497 6.47243V7.21007V93.5276C93.5497 93.8534 93.8662 94.1176 94.2566 94.1176H97.6143C98.0046 94.1176 98.3211 93.8534 98.3211 93.5276V9.10675H100.969C101.36 9.10675 101.676 9.37089 101.676 9.69682V92.9375C101.676 93.5893 102.309 94.1176 103.09 94.1176H103.267H106.448H109.803H113.867C114.258 94.1176 114.574 93.8534 114.574 93.5276V92.7899V6.47243C114.574 6.14659 114.258 5.88235 113.867 5.88235H110.51C110.119 5.88235 109.803 6.14659 109.803 6.47243V90.3032Z" fill="white"/>
</svg>
