<svg width="114" height="64" viewBox="0 0 114 64" fill="none" xmlns="http://www.w3.org/2000/svg">
<g clip-path="url(#clip0_135_1773)">
<path fill-rule="evenodd" clip-rule="evenodd" d="M41.627 32.3831C42.946 31.7831 44.362 30.3081 44.362 26.6601C44.362 21.8111 42.135 19.9531 37.758 19.9531H32.282V42.6731H36.181V33.3581C36.885 33.3581 37.693 33.3271 38.197 33.2621L40.965 42.6731H44.9319L41.627 32.3831ZM37.565 30.1461H36.181V23.1591H37.565C39.676 23.1591 40.463 23.9491 40.463 26.6541C40.463 29.3601 39.676 30.1461 37.565 30.1461Z" fill="#735525"/>
<path fill-rule="evenodd" clip-rule="evenodd" d="M24.1161 23.3531H20.3362V42.6731L16.4341 42.6721V23.3531H12.6602V19.9531H24.1161V23.3531Z" fill="#735525"/>
<path fill-rule="evenodd" clip-rule="evenodd" d="M63.067 50.9373H49.55V47.6113H54.426V15.4603L49.437 15.9073V13.4643C51.712 12.9093 53.9301 11.9083 55.7501 10.3613H58.42L58.413 47.6113H63.067V50.9373Z" fill="#735525"/>
<path fill-rule="evenodd" clip-rule="evenodd" d="M79.6171 27.54H75.7181V25.776C75.7181 23.857 74.8381 23.038 73.8271 23.038C72.2561 23.038 71.7482 23.857 71.7482 25.55V37.076C71.7482 38.77 72.2561 39.59 73.8271 39.59C75.2491 39.59 75.7181 38.77 75.7181 37.298V34.554H79.6171V37.173C79.6171 40.374 77.7311 42.991 73.8271 42.991C69.7401 42.991 67.8481 40.374 67.8481 37.173V25.461C67.8481 22.248 69.7402 19.644 73.8262 19.644C77.7312 19.644 79.6171 22.467 79.6171 25.87V27.54Z" fill="#735525"/>
<path fill-rule="evenodd" clip-rule="evenodd" d="M96.787 42.6731L93.618 32.0981H93.553L92.172 34.6251V42.6731H88.261V19.9531H92.172V28.3561H92.231L96.321 19.9531H100.222L96.006 28.4131L100.763 42.6731H96.787Z" fill="#735525"/>
<path fill-rule="evenodd" clip-rule="evenodd" d="M111.124 9.633C93.57 3.241 75.262 0 56.709 0C38.152 0 19.843 3.242 2.29095 9.636L0 10.471V52.054L2.29095 52.888C21.074 59.729 39.115 63.244 55.915 63.335L56.4969 63.336C73.7019 63.336 92.081 59.821 111.124 52.888L113.415 52.054V10.467L111.124 9.633ZM109.932 42.509V49.615C92.6159 55.919 74.5589 59.853 56.4969 59.853C56.3089 59.853 56.1199 59.852 55.9319 59.852C38.1969 59.756 20.481 55.807 3.48297 49.615V42.509V12.909C20.734 6.625 38.72 3.483 56.709 3.483C74.693 3.483 92.6819 6.62501 109.932 12.906V42.509Z" fill="#735525"/>
</g>
<defs>
<clipPath id="clip0_135_1773">
<rect width="113.415" height="63.336" fill="white"/>
</clipPath>
</defs>
</svg>
