<svg width="279" height="100" viewBox="0 0 279 100" fill="none" xmlns="http://www.w3.org/2000/svg">
<g clip-path="url(#clip0_135_1671)">
<path d="M189.133 72.3334H189.067C177.2 80.7334 163.2 89.5334 148.067 98.8001L147.467 99.1334C147.401 99.1602 147.343 99.2016 147.296 99.2543C147.249 99.3071 147.214 99.3698 147.195 99.4378C147.176 99.5058 147.172 99.5773 147.184 99.6469C147.197 99.7165 147.225 99.7824 147.266 99.8396C147.308 99.8967 147.362 99.9437 147.424 99.9769C147.487 100.01 147.556 100.029 147.627 100.031C147.697 100.034 147.768 100.021 147.832 99.992C147.897 99.9635 147.954 99.9207 148 99.8667L148.467 99.6C161.333 92.9334 176.067 85 190.867 76.8L191.133 76.6667C190.26 75.3271 189.586 73.8673 189.133 72.3334ZM267 9.26671C248.333 -11.3333 127.933 7.20005 76.8 18.4L75.6 18.6667C75.4826 18.6969 75.3791 18.7662 75.3064 18.8632C75.2337 18.9601 75.1961 19.0789 75.2 19.2C75.2065 19.2603 75.2266 19.3182 75.2587 19.3695C75.2909 19.4208 75.3343 19.4642 75.3857 19.4963C75.437 19.5284 75.495 19.5484 75.5552 19.5548C75.6154 19.5613 75.6763 19.5539 75.7333 19.5334L76.9333 19.3334C119.333 11.8 207.533 1.33338 226.467 20.1334C232.267 25.8667 230.933 33.2667 224.2 42C227.917 44.4284 230.546 48.2047 231.533 52.5334C257.733 35.1334 275.333 18.4667 267 9.26671Z" fill="#CC2427"/>
<path d="M88.6667 56.1998C87.2045 56.2043 85.7811 56.671 84.6 57.5332C83.3899 58.5425 82.6044 59.9706 82.4 61.5332C82 63.5998 82.2 64.9998 83 65.9332C83.466 66.386 84.0201 66.7381 84.628 66.9675C85.2359 67.1969 85.8845 67.2986 86.5334 67.2665C87.5436 67.2869 88.5457 67.0819 89.4667 66.6665C90.3558 66.2553 91.1163 65.6101 91.6667 64.7998C92.2902 63.8728 92.721 62.8299 92.9334 61.7332C93.2667 59.8665 93 58.5332 92.1334 57.5998C91.691 57.1299 91.152 56.7614 90.5536 56.5197C89.9551 56.278 89.3114 56.1689 88.6667 56.1998ZM67.9334 82.0665L73.4667 50.8665H83.4667L82.6667 54.8665C83.7618 53.4968 85.2159 52.4582 86.8667 51.8665C88.9216 51.0271 91.114 50.5751 93.3334 50.5332C95.9334 50.5332 97.5334 50.6665 99.4667 51.6665C101.3 52.5862 102.725 54.1544 103.467 56.0665C104.252 58.0818 104.438 60.2815 104 62.3998C103.723 64.2186 103.084 65.9636 102.123 67.5321C101.161 69.1006 99.8952 70.461 98.4 71.5332C95.3334 73.7332 92.6 74.3332 88.6667 74.3332C87.4765 74.355 86.2886 74.2205 85.1334 73.9332C84.3384 73.7602 83.5742 73.468 82.8667 73.0665C82.1754 72.5679 81.5484 71.9857 81 71.3332L79.1334 82.0665H67.9334ZM183.333 73.9998H171.733L177.6 41.5998L188.867 41.8665L183.333 73.9998ZM125.467 50.5998L126.267 45.8665L138.133 43.3332L136.867 50.5998H142.733L141.6 55.3332H135.933L132.533 73.9998H121L124.467 55.3332H120.133L121 50.6665H125.467V50.5998ZM33.0667 65.6665C29.9599 66.3615 26.7835 66.6971 23.6 66.6665C18.2 66.6665 13.8667 63.9998 14.1334 58.9998C14.2667 55.7332 18.2 48.7998 28.0667 48.7998C31.1919 48.7276 34.2713 49.5611 36.9334 51.1998L38.3334 43.1332C34.7757 41.7201 30.9571 41.0837 27.1334 41.2665C14.1334 41.3998 1.66671 47.2665 0.133377 59.2665C-1.39996 71.2665 13.4667 74.5332 20.0667 74.5332C23.8667 74.5332 27.8667 74.3332 31.5334 73.9998L33.0667 65.6665ZM159.533 63.3332L157.6 63.8665L153.133 64.6665C152.077 64.753 151.052 65.0717 150.133 65.5998C149.865 65.7508 149.635 65.9617 149.462 66.2161C149.288 66.4705 149.176 66.7615 149.133 67.0665C149.054 67.3624 149.069 67.6759 149.176 67.9629C149.284 68.2499 149.479 68.4959 149.733 68.6665C150.333 69.0665 151.267 69.1998 152.6 69.1998C153.592 69.2026 154.579 69.068 155.533 68.7998C156.41 68.5431 157.227 68.1123 157.933 67.5332C158.401 67.1231 158.746 66.5927 158.933 65.9998C159.214 65.1311 159.415 64.2385 159.533 63.3332ZM171.8 55.6665C171.733 56.7998 171.533 57.8665 171.267 59.5332L169.2 71.1998C169.09 71.6691 169.142 72.1617 169.348 72.5975C169.554 73.0333 169.901 73.3866 170.333 73.5998V73.9998H158.4V70.9998C156.604 72.0681 154.677 72.8973 152.667 73.4665C150.794 73.9458 148.866 74.17 146.933 74.1332C143.133 74.1332 140.933 73.7332 139.4 72.3998C137.867 71.0665 137.133 70.1332 137.2 68.2665C137.326 66.989 137.838 65.78 138.667 64.7998C139.538 63.8471 140.608 63.0962 141.8 62.5998C143.305 61.9274 144.899 61.4782 146.533 61.2665C148.667 60.9332 151.6 60.5998 155.533 60.2665C156.853 60.1389 158.152 59.8478 159.4 59.3998C160.2 59.0665 160.533 58.7332 160.667 58.0665C160.8 57.3998 160.533 56.1998 158.933 55.8665C154.667 54.9998 146.667 56.3998 142.533 57.3998L144.733 51.3998C150.004 50.5616 155.33 50.1159 160.667 50.0665C169.133 50.1332 171.867 52.5998 171.8 55.6665ZM103.667 73.9998L107.8 50.7332H119.2L115.067 73.9998H103.667ZM108.467 45.3998C108.8 43.4665 111.8 41.9332 115.2 41.9332C118.6 41.9332 121 43.4665 120.667 45.3998C120.333 47.3332 117.333 48.8665 113.933 48.8665C110.533 48.8665 108.133 47.2665 108.467 45.3998ZM57 63.2665C56.3784 63.5185 55.7296 63.6975 55.0667 63.7998L50.6667 64.5998C49.5873 64.6765 48.5391 64.9956 47.6 65.5332C47.33 65.6985 47.1002 65.9219 46.9272 66.1871C46.7543 66.4523 46.6425 66.7527 46.6 67.0665C46.5314 67.3598 46.5592 67.6674 46.6793 67.9436C46.7994 68.2198 47.0054 68.45 47.2667 68.5998C48.1188 69.0761 49.0943 69.2852 50.0667 69.1998C51.0613 69.1801 52.0484 69.0231 53 68.7332C53.877 68.4765 54.6933 68.0457 55.4 67.4665C55.8673 67.0564 56.2132 66.5261 56.4 65.9332C56.7236 65.0767 56.9256 64.179 57 63.2665ZM69.2667 55.6665C69.2 56.7998 69 57.7998 68.7334 59.5332L66.6667 71.1332C66.5567 71.6024 66.6089 72.0951 66.8147 72.5309C67.0205 72.9667 67.3678 73.32 67.8 73.5332V73.9998H55.8667V71.0665C54.0552 72.0861 52.1311 72.8916 50.1334 73.4665C48.2862 73.9655 46.38 74.2122 44.4667 74.1998C40.6 74.1998 38.4 73.7998 36.9334 72.4665C35.4667 71.1332 34.6 70.1998 34.6667 68.2665C34.8099 67.0134 35.3202 65.8305 36.1334 64.8665C37.0012 63.8928 38.0704 63.1194 39.2667 62.5998C40.8023 61.9495 42.4158 61.5013 44.0667 61.2665C46.1334 60.9332 49.0667 60.5998 53 60.2665C54.3324 60.2264 55.6448 59.9323 56.8667 59.3998C57.7334 59.0665 58 58.7332 58.1334 58.0665C58.2667 57.3998 58 56.1998 56.4 55.8665C52.1334 55.0665 44.1334 56.3998 40 57.4665L42.2 51.3998C47.4711 50.5642 52.7967 50.1186 58.1334 50.0665C66.6 50.0665 69.3334 52.5332 69.2667 55.6665Z" fill="#013D5B"/>
<path d="M229.733 58.7996L232.333 58.533C233.2 58.533 233.933 58.733 234 59.533C234.067 60.333 233.133 63.533 232.933 64.3996L231.133 72.1996C230.467 75.3996 229.667 78.733 229 81.3996H233.533L236.067 68.9996C243.933 60.8663 246.933 58.1996 248.733 58.1996C248.931 58.1786 249.131 58.2021 249.319 58.2684C249.506 58.3347 249.676 58.4421 249.817 58.5827C249.958 58.7233 250.065 58.8936 250.131 59.0811C250.198 59.2686 250.221 59.4686 250.2 59.6663C250.267 61.0663 249.333 64.333 249.067 65.2663L246.4 74.2663C245.867 76.333 245.4 78.133 245.467 79.4663C245.533 80.7996 246.733 82.333 248.467 82.333C251.8 82.333 254.267 78.8663 256.333 75.4663L255.733 74.333C254.867 75.6663 252.933 78.6663 251.333 78.6663C250.867 78.6663 250.4 78.333 250.4 77.533C250.454 76.286 250.678 75.0524 251.067 73.8663L254 63.2663C254.733 60.333 255.133 58.4663 255.133 57.4663C255.133 56.4663 253.867 54.5996 252.133 54.5996C249.133 54.5996 245.133 56.7996 236.733 66.4663H236.6L237.667 61.733C238.267 59.133 238.8 56.4663 239.333 54.5996C236.175 55.722 232.945 56.6351 229.667 57.333L229.733 58.7996ZM274.333 59.0663C274.267 57.1996 273.333 55.933 271.4 55.933C266.733 55.933 261.8 65.0663 260.933 68.733C268.533 68.733 274.533 64.1996 274.333 59.0663ZM275.333 73.3996L276.2 73.9996C273.933 78.5996 269.333 82.333 263.867 82.333C259.4 82.333 255.8 79.3996 255.6 73.8663C255.2 63.8663 264.6 54.5996 272.2 54.5996C275.467 54.5996 278.533 56.0663 278.667 59.5996C278.933 67.533 267.8 69.933 260.467 70.0663C260.226 71.0244 260.136 72.014 260.2 72.9996C260.333 76.333 262.333 79.0663 266.4 79.0663C270.467 79.0663 273.533 76.1996 275.333 73.3996ZM196.733 66.933C196.933 74.1996 201.533 80.133 207.533 80.133C219.133 80.133 224.067 65.8663 223.733 56.333C223.467 49.0663 218.8 43.133 212.8 43.133C202.8 43.133 196.333 57.333 196.733 66.933ZM190.6 66.533C190.133 54.133 199.867 41.4663 213.933 41.4663C223.4 41.4663 229.533 47.7996 229.867 57.3996C230.333 70.4663 221.267 82.4663 206.533 82.4663C197.067 82.4663 190.933 76.1996 190.6 66.533Z" fill="#013D5B"/>
</g>
<defs>
<clipPath id="clip0_135_1671">
<rect width="278.667" height="100" fill="white"/>
</clipPath>
</defs>
</svg>
