<svg width="227" height="80" viewBox="0 0 227 80" fill="none" xmlns="http://www.w3.org/2000/svg">
<g clip-path="url(#clip0_135_1680)">
<path d="M113.164 4.01895C113.998 2.65613 115.383 1.23016 116.874 0.627056C119.441 -0.540688 122.881 -0.0385128 124.975 1.80928C127.001 3.64509 128.029 6.16117 127.544 8.97417C128.041 8.88251 128.543 8.56432 129.069 8.38328C132.214 7.49548 135.541 8.45819 137.558 11.1551C139.073 13.0803 139.469 16.0714 138.559 18.3971C138.108 19.5669 137.338 20.6188 136.338 21.5163L136.439 21.6177C139.365 21.7598 142.241 24.0324 143.128 26.8187C144.091 29.6292 143.244 32.6325 141.189 34.6881C139.51 36.3478 137.351 36.9222 134.95 36.8738H91.375C87.7971 36.9509 85.0325 35.3659 83.5441 32.1842C82.3763 29.4531 82.9529 25.9601 85.1336 23.8783C86.5087 22.4403 88.2313 21.8515 90.0889 21.555C87.9853 19.6034 86.9719 16.9329 87.563 14.0692C87.9853 11.7487 89.9635 9.39894 92.2358 8.58831C94.238 7.79216 96.9498 7.93202 98.7834 9.01264L98.8485 8.93298C98.2961 5.77509 99.6954 2.92611 102.315 1.17947C104.65 -0.400378 108.385 -0.359643 110.671 1.31978C111.699 1.94914 112.546 3.02998 113.164 4.01895Z" fill="white"/>
<path d="M125.5 5.19864C126.437 7.08763 125.887 9.56275 124.909 11.2587L117.349 28.2686L117.284 28.3483L114.551 11.0924C114.331 9.43533 116.102 8.72835 117.144 7.9322C117.091 7.6887 116.823 7.70069 116.654 7.58731L114.1 7.56061L114.022 7.48344C114.037 5.34121 115.19 3.36306 117.144 2.32341C119.185 1.1439 122.06 1.46457 123.831 2.97721C124.55 3.61856 125.156 4.36379 125.5 5.19864Z" fill="#645FAA"/>
<path d="M111.571 4.60777C112.189 5.7513 112.546 7.0494 112.329 8.4869L109.246 28.2446C109.263 28.2686 109.234 28.2953 109.209 28.3071L108.411 26.7175L100.684 9.4616C99.965 7.23972 100.631 4.91668 102.25 3.32416C103.88 1.6694 106.563 1.22063 108.696 2.11817C109.825 2.60563 110.903 3.50317 111.571 4.60777Z" fill="#C9234A"/>
<path d="M136.684 12.9255C137.724 14.6983 137.49 17.3812 136.334 19.0265C135.618 20.182 134.436 20.7586 133.435 21.5161L117.424 32.5067H117.387L117.566 31.981L126.053 12.8243C127.324 10.5662 129.751 9.42267 132.318 9.76756C134.077 10.0887 135.835 11.232 136.684 12.9255Z" fill="#0089CF"/>
<path d="M100.313 12.8242L109.145 32.5046H109.002L91.1966 20.2326C89.3845 18.7057 88.6418 16.4187 89.2569 14.1076C89.7177 12.3755 91.1554 10.7569 92.8658 10.1149C95.6664 9.08971 98.8215 10.1801 100.313 12.8242Z" fill="#F36F21"/>
<path d="M141.331 26.8185C142.218 28.693 141.869 31.2598 140.6 32.8541C139.341 34.3815 137.657 35.2161 135.681 35.1629L116.695 35.1751L132.6 24.1096C134.154 23.1084 136.516 22.9272 138.212 23.7378C139.521 24.2517 140.754 25.5351 141.331 26.8185Z" fill="#0DB14B"/>
<path d="M85.1096 26.8185C84.2245 28.693 84.5716 31.2598 85.843 32.8541C87.1022 34.3815 88.7812 35.2161 90.7595 35.1629L109.745 35.1751L93.8403 24.1096C92.2867 23.1084 89.9251 22.9272 88.2315 23.7378C86.9211 24.2517 85.6887 25.5351 85.1096 26.8185Z" fill="#FDB913"/>
<path d="M51.0174 46.54C41.7925 46.54 34.2949 54.0426 34.2949 63.2678C34.2949 72.4904 41.7925 79.9975 51.0174 79.9975C60.2426 79.9975 67.7451 72.4904 67.7451 63.2678C67.7451 54.0428 60.2426 46.54 51.0174 46.54ZM51.0174 76.7022C43.609 76.7022 37.5804 70.6741 37.5804 63.268C37.5804 55.8639 43.609 49.8355 51.0174 49.8355C58.426 49.8355 64.4546 55.8641 64.4546 63.268C64.4546 70.6741 58.426 76.7022 51.0174 76.7022Z" fill="black"/>
<path d="M195.24 63.4802C194.343 63.0095 188.884 60.1992 188.1 59.7916C185.236 58.3272 184.221 57.0341 184.221 54.8436C184.221 51.7994 186.72 49.8332 190.596 49.8332C192.872 49.8332 195.071 50.8344 196.362 51.5604C196.597 51.6882 196.874 51.7607 197.163 51.7607C198.065 51.7607 198.806 51.0202 198.806 50.1179C198.806 49.51 198.473 48.9766 197.984 48.6919C196.358 47.7847 193.586 46.5425 190.596 46.5425C184.901 46.5425 180.928 49.9534 180.928 54.8436C180.928 59.232 183.813 61.3018 186.636 62.7445C187.427 63.1473 192.949 65.9938 193.776 66.4303C195.957 67.5714 197.163 69.2843 197.163 71.2554C197.163 73.8969 194.925 76.7049 190.783 76.7049C186.754 76.7049 183.625 74.003 182.761 73.1707L182.503 72.9244L180.069 75.1438L180.354 75.4285C181.434 76.5001 185.386 79.9977 190.783 79.9977C196.833 79.9977 200.449 75.5516 200.449 71.2554C200.449 68.0471 198.553 65.2119 195.24 63.4802Z" fill="black"/>
<path d="M16.723 49.8353C20.3149 49.8353 23.6898 51.2348 26.2229 53.7651C26.826 54.3657 27.9598 54.3657 28.5532 53.7651C28.8668 53.4587 29.0332 53.0464 29.0332 52.6048C29.0332 52.1681 28.8668 51.7508 28.5532 51.4443L28.3506 51.2368C25.2192 48.2068 21.0868 46.54 16.723 46.54C7.50253 46.54 0 54.0451 0 63.2653C0 72.4907 7.50253 79.9977 16.723 79.9977C21.5908 79.9977 25.9767 77.9091 29.0332 74.5795L26.7051 72.2492C24.2445 74.98 20.6838 76.7025 16.7227 76.7025C9.31661 76.7025 3.28802 70.6718 3.28802 63.2655C3.28824 55.8664 9.31683 49.8353 16.723 49.8353Z" fill="black"/>
<path d="M130.113 49.8353C133.701 49.8353 137.08 51.2348 139.613 53.7651C140.214 54.3657 141.348 54.3657 141.941 53.7651C142.255 53.4587 142.428 53.0464 142.428 52.6048C142.428 52.1681 142.255 51.7508 141.941 51.4443L141.741 51.2368C138.602 48.2068 134.475 46.54 130.113 46.54C120.891 46.54 113.385 54.0448 113.385 63.265C113.385 72.4904 120.891 79.9975 130.113 79.9975C134.979 79.9975 139.365 77.9089 142.426 74.5793L140.095 72.249C137.635 74.9798 134.069 76.7022 130.113 76.7022C122.705 76.7022 116.674 70.6716 116.674 63.2653C116.674 55.8664 122.705 49.8353 130.113 49.8353Z" fill="black"/>
<path d="M101.78 46.54C101.162 46.54 100.674 46.9381 100.409 47.4518C100.139 47.9655 90.5665 71.6434 90.5642 71.6434C90.5642 71.6434 80.9919 47.9653 80.7239 47.4518C80.4562 46.9379 79.9692 46.54 79.3516 46.54C78.6301 46.54 78.0875 47.0707 77.8969 47.7392C77.7064 48.4121 72.3051 78.2122 72.3051 78.2122C72.2856 78.309 72.2761 78.4104 72.2761 78.5138C72.2761 79.3337 72.9444 79.9975 73.7598 79.9975C74.4835 79.9975 75.0866 79.4815 75.2168 78.7988L79.8943 53.3021C79.8943 53.3021 88.9192 75.5974 89.1822 76.1279C89.4476 76.6563 89.9396 77.0689 90.5669 77.0689C91.194 77.0689 91.684 76.6563 91.9467 76.1279C92.2122 75.5972 101.237 53.3021 101.237 53.3021L106.098 79.8142H109.118C109.118 79.8142 103.428 48.4118 103.237 47.7392C103.043 47.0707 102.501 46.54 101.78 46.54Z" fill="black"/>
<path d="M161.25 46.5425C160.625 46.5402 160.141 46.9478 159.868 47.4785C159.597 48.0069 147.48 77.9353 147.48 77.9353C147.408 78.1112 147.367 78.3069 147.367 78.5142C147.367 79.3342 148.03 80.0002 148.85 80.0002C149.475 80.0002 150.011 79.6093 150.231 79.0569L154.934 67.4849H167.568L172.586 79.8144H175.792C175.792 79.8144 162.895 48.0067 162.63 47.4783C162.367 46.9478 161.877 46.5402 161.25 46.5425ZM156.276 64.1915L161.25 51.9605L166.229 64.1915H156.276Z" fill="black"/>
<path d="M224.715 46.7183H206.092C205.184 46.7183 204.449 47.4567 204.449 48.366C204.449 49.2706 205.184 50.0088 206.092 50.0088H213.898V79.8116H216.914V50.009H224.715C225.622 50.009 226.365 49.2708 226.365 48.3662C226.365 47.4567 225.622 46.7183 224.715 46.7183Z" fill="black"/>
</g>
<defs>
<clipPath id="clip0_135_1680">
<rect width="226.365" height="80" fill="white"/>
</clipPath>
</defs>
</svg>
