<svg width="257" height="100" viewBox="0 0 257 100" fill="none" xmlns="http://www.w3.org/2000/svg">
<g clip-path="url(#clip0_135_1670)">
<path d="M73.7628 0.000601191C70.8354 0.00982721 67.8929 0.123728 64.9309 0.366125C45.2565 2.00579 26.5298 12.974 26.4958 29.6263C26.4748 38.0707 32.5378 44.913 41.9322 44.6119C52.9712 44.2412 62.0335 35.4844 66.7777 24.4438C68.5776 20.2548 65.2441 18.5148 63.6578 20.9265C60.895 25.1397 57.0465 28.5293 52.5182 30.7379C47.324 33.2565 41.7721 32.577 40.0887 28.4009C37.7223 22.5092 42.6414 13.6929 53.8665 9.54433C70.0802 3.60076 87.0446 7.53243 103.368 10.569C103.602 10.569 104.471 11.0465 103.702 11.443C100.779 13.0212 97.9009 14.3045 93.4174 18.1245C90.2028 20.8502 85.9944 24.4792 82.7394 28.4319C79.5087 32.3279 77.2186 35.8029 74.1885 39.6552C73.7661 40.212 73.2461 40.1863 73.2526 40.1863C65.8668 41.4213 58.6365 42.2487 52.0163 46.8067C50.6469 47.7423 50.0526 49.4029 50.8829 50.6735C51.6291 51.8001 53.3358 51.9197 54.5206 51.0667C58.6335 48.0204 62.8679 46.5865 67.7237 46.4537C67.9358 46.4667 68.0377 46.5007 68.0976 46.6302C68.1348 46.7031 68.1122 46.8565 68.0248 46.9698C60.7508 56.9616 58.9292 59.2196 53.4566 65.4141C50.658 68.5979 47.905 71.2851 44.8296 74.082C32.4051 85.5111 19.0414 85.3136 14.247 78.148C11.3821 73.8473 11.7597 69.3327 13.6373 65.5872C15.9487 61 20.6196 57.638 24.5043 55.6746C25.9464 54.9462 26.3613 53.1204 24.9175 51.4565C23.9997 50.372 21.7738 50.1793 20.1163 50.4803C15.0274 51.411 9.01399 55.2202 5.46112 59.8041C1.45665 64.9481 -0.54372 71.1929 0.128005 78.2015C1.33388 90.8478 11.8502 98.1527 23.7891 98.0685C33.2892 97.995 42.2375 95.145 53.005 84.3225C63.042 74.2288 72.1862 59.1514 80.7487 45.1698C81.0174 44.7231 81.208 44.4836 82.5094 44.3233C87.88 43.6581 95.8101 42.9008 100.893 42.6095C102.022 42.548 102.252 42.5604 102.705 43.1189C104.029 44.7731 106.018 46.1771 107.611 47.0317C108.388 47.4493 108.757 47.6577 109.367 47.6674C110.12 47.6836 110.706 47.2826 111.085 46.8586C111.624 46.2726 111.772 45.5062 111.481 45.0126C111.177 44.4946 107.632 42.5497 107.527 41.763C107.45 41.2726 107.991 41.1541 107.991 41.1541C110.597 40.3448 113.308 38.6792 114.951 35.5633C116.565 32.4961 116.826 28.4025 113.873 26.1267C111.282 24.1277 107.366 24.4431 104.243 27.2191C101.187 29.9141 100.175 33.835 100.588 37.2713C100.663 37.867 100.632 38.0674 99.8111 38.1354C95.1138 38.5077 90.5879 38.6369 85.554 38.9007C85.2174 38.925 85.1106 38.7048 85.3064 38.4733C91.1027 28.5026 99.7572 21.4023 109.33 14.4099C109.964 13.9389 109.77 13.0432 109.745 12.2954C127.028 16.0133 143.731 22.9332 161.662 22.7859C169.077 22.7261 176.176 21.6093 182.961 17.9237C188.929 14.7011 191.351 11.7198 191.529 8.62174C191.668 6.48031 190.164 5.12668 188.022 5.58799C169.905 9.709 152.622 9.66351 134.597 7.50427C114.01 5.03 94.2546 -0.0635973 73.7628 0.000601191ZM109.927 28.8969C110.35 28.9194 110.747 29.06 111.067 29.3319C112.022 30.1396 111.57 32.1548 110.605 33.55C109.552 35.0893 107.764 36.4182 106.135 36.7419C105.808 36.8018 105.524 36.6627 105.39 35.9456C105.125 34.047 105.748 31.5043 107.797 29.7125C108.439 29.151 109.221 28.8596 109.927 28.8969ZM255.366 29.2608C252.072 29.2608 247.752 29.2666 244.319 29.2666C243.501 29.2666 243.079 29.3655 242.692 30.1181C241.426 32.5218 225.987 55.4306 223.113 59.8802C222.63 60.5568 222.038 60.4624 221.97 59.6903C221.679 57.0487 219.375 54.0124 215.744 52.5588C212.977 51.4469 210.27 51.2463 207.459 51.6153C202.381 52.2903 197.858 54.945 193.879 57.9346C187.885 62.449 182.715 68.2932 176.038 72.6149C172.393 74.9668 167.403 77.0183 164.064 73.9591C161.042 71.1847 161.381 65.021 166.006 60.2557C166.493 59.7556 167.077 60.1729 166.985 60.6213C166.548 62.7773 167.086 64.9207 168.738 66.4244C170.755 68.213 173.642 68.4169 176.112 67.2224C179.029 65.7932 180.742 63.0296 181.244 59.8927C182.016 55.0288 178.233 50.7381 173.504 50.395C169.659 50.1279 165.974 51.452 162.384 54.3881C160.582 55.8659 159.557 56.96 158.002 59.1516C157.622 59.6923 157.039 59.7472 157.058 58.9492C157.238 52.7224 154.635 49.2185 149.434 49.1035C145.401 49.0097 141.088 51.1749 137.728 53.8294C134.044 56.7591 130.822 60.6407 127.37 64.289C126.941 64.739 126.565 64.7181 126.446 63.8457C126.34 59.7198 125.293 55.7233 123.363 52.8859C122.682 51.8985 121.246 51.4094 120.039 52.0762C119.482 52.3789 117.541 53.2615 116.132 54.3865C115.431 54.9578 115.16 55.7846 115.467 56.8448C117.329 63.0068 116.919 70.0155 114.394 75.9364C112.075 81.3555 107.567 86.2474 102.271 87.9016C98.7813 88.9974 95.1522 88.4614 92.9071 85.3973C89.8237 81.1695 91.0704 73.8179 95.664 67.7109C99.7219 62.3371 105.586 58.9215 111.441 56.7218C112.13 56.4596 112.271 56.0232 112.077 55.4437C111.758 54.4887 111.252 53.193 111.043 52.599C110.507 51.1859 109.003 50.9545 107.169 51.1536C102.917 51.6441 99.0827 53.0862 95.2935 55.0949C85.3713 60.3554 80.3987 70.5366 78.2168 75.9849C77.168 78.599 76.27 80.234 75.1094 81.681C73.5459 83.6282 71.5823 85.3991 67.9922 88.5214C67.6685 88.8079 67.4259 89.4048 67.6978 89.9584C68.0652 90.7111 69.9312 93.3203 70.4589 93.5534C71.0432 93.8383 71.721 93.4407 71.9929 93.2464C74.505 91.5614 77.5108 88.8889 78.9822 87.076C79.4969 86.4561 80.0285 86.717 80.302 87.659C81.6746 92.5084 85.269 96.467 90.2397 98.1228C99.3364 101.161 108.773 96.7639 115.895 89.1094C120.421 84.2455 122.054 81.1163 123.789 78.9894C126.729 75.3815 132.53 67.3114 139.436 62.1302C141.97 60.2202 144.969 58.7633 146.478 59.7296C147.687 60.5066 148.077 62.3109 146.135 65.8072C139.094 78.5408 128.727 93.5019 126.827 97.1325C126.481 97.7622 126.783 98.2558 127.449 98.2558C131.134 98.2397 134.789 98.2474 138.135 98.2474C138.69 98.2215 138.941 97.9709 139.22 97.5808C144.624 89.2044 149.712 81.2282 155.163 72.9846C155.471 72.499 155.751 72.8754 155.762 73.0874C155.875 74.999 156.349 77.6166 157.495 79.3356C159.557 82.5113 162.478 83.8756 165.718 83.8967C168.295 83.9258 169.598 83.5377 172.377 82.5099C174.321 81.7872 176.161 80.8095 177.848 79.6024C178.662 79.044 178.804 79.9803 178.783 80.1244C177.534 86.7753 179.078 94.6541 185.753 97.9221C193.743 101.823 202.519 96.341 207.569 91.3928C208.063 90.9153 208.595 90.9655 208.646 91.9917C208.752 93.8823 209.614 96.1245 211.193 97.6945C215.424 101.9 223.964 100.234 232.535 93.6638C238.038 89.4602 243.795 83.5185 248.996 77.227C249.189 76.9842 249.332 76.5906 248.96 76.1956C248.167 75.375 247.022 74.4358 246.237 73.7123C245.879 73.4112 245.352 73.4974 245.05 73.7257C239.72 78.745 234.922 84.4703 227.985 89.2048C225.646 90.8202 221.92 92.1248 220.244 89.8814C219.592 89.0106 219.667 87.8043 220.31 86.2229C222.335 81.2278 254.349 32.9638 256.01 30.1215L256.013 30.1181C256.298 29.6228 255.997 29.2608 255.366 29.2608ZM210.507 59.4344C211.345 59.4271 212.13 59.5868 212.844 59.927C216.787 61.7901 215.528 66.3109 213.765 69.8606C213.706 69.9717 213.668 70.0937 213.656 70.2193C213.644 70.345 213.657 70.4718 213.694 70.5924C213.759 70.9615 214.244 71.3191 214.721 71.4891C214.888 71.5506 214.983 71.6702 214.794 72.0587C213.431 74.9479 212.181 76.6135 210.473 79.1224C208.907 81.4419 207.139 83.25 204.995 84.9917C201.766 87.6381 197.283 90.5175 193.576 88.5817C191.929 87.7335 191.218 85.4525 191.25 83.6057C191.336 78.4099 193.662 73.0783 197.971 67.8372C202.24 62.6346 206.874 59.4663 210.507 59.4344Z" fill="#066FEF"/>
</g>
<defs>
<clipPath id="clip0_135_1670">
<rect width="256.429" height="100" fill="white"/>
</clipPath>
</defs>
</svg>
