<svg width="100" height="126" viewBox="0 0 100 126" fill="none" xmlns="http://www.w3.org/2000/svg">
<g clip-path="url(#clip0_135_1706)">
<path d="M83.5314 48.7035C83.9314 50.7035 82.6314 52.0035 81.4314 53.2035C77.2314 57.8035 72.2314 61.5035 66.6314 64.1035C63.6314 65.6035 60.4314 67.0035 56.5314 68.8035C63.7314 57.7035 76.3314 48.4035 83.5314 48.7035ZM26.8314 75.7035C26.4314 77.4035 25.8314 79.1035 25.1314 80.7035C22.0314 87.2035 18.9314 93.7035 15.5314 100.003C13.1314 104.503 10.4314 108.704 7.83137 113.004C7.13137 114.304 6.13137 115.403 5.13137 116.403C8.43137 100.703 17.2314 87.8035 26.6314 75.3035C26.6314 75.2035 26.7314 75.1035 26.8314 75.1035C27.1314 75.1035 26.9314 75.5035 26.8314 75.7035ZM99.2314 0.103502C97.2314 -0.296498 95.9314 0.503514 93.4314 1.80351C89.4314 4.90351 85.6314 8.1035 81.5314 11.1035C65.6314 22.8035 49.7314 34.4035 33.8314 46.1035C26.3314 52.1035 17.8314 56.7035 8.73137 59.8035C6.73137 60.4035 4.83137 61.1035 2.93137 62.0035C1.73137 64.8035 7.13137 64.4035 9.33137 63.4035C13.8314 61.8035 18.2314 60.0035 22.6314 57.9035C29.3314 53.9035 35.7314 49.3035 42.2314 44.9035C45.1314 43.0035 47.7314 41.1035 50.7314 39.1035L51.9314 38.1035C51.8314 38.3035 51.7314 38.4035 51.5314 38.6035C51.4314 38.8035 51.2314 39.0035 51.1314 39.2035C49.3314 41.6035 47.3314 43.9035 45.3314 46.2035C41.6314 50.7035 37.8314 55.1035 34.0314 59.5035C33.4314 59.1035 33.0314 58.7035 32.6314 58.5035C30.5314 57.1035 28.3314 57.1035 27.1314 58.5035C26.0314 59.9035 26.3314 61.9035 27.7314 63.0035C29.5314 65.0035 28.7314 66.5035 27.4314 68.3035C22.8314 74.8035 18.4314 81.5035 13.9314 88.0035C7.63137 97.1035 3.03137 107.304 0.33137 118.104C-0.0686299 119.704 -0.0686287 121.404 0.131371 123.004C0.131371 124.504 1.33137 125.704 2.83137 125.704C3.63137 125.704 4.33137 125.404 4.83137 124.804C6.13137 123.604 7.23137 122.204 8.03137 120.604C13.7314 110.304 19.4314 100.004 25.0314 89.7035C29.1314 82.8035 31.8314 75.3035 33.1314 67.4035C33.2314 65.6035 34.5314 64.0035 36.3314 63.6035C37.8314 63.2035 39.2314 62.8035 40.7314 62.4035C45.6314 61.3035 50.5314 60.3035 56.2314 59.0035C54.8314 61.5035 53.9314 63.1035 53.0314 64.7035C50.0314 70.0035 47.0314 75.2035 44.0314 80.5035C43.0314 82.1035 42.1314 83.8035 41.5314 85.6035C41.2314 86.6035 41.5314 88.5035 42.1314 88.9035C43.2314 89.3035 44.5314 89.1035 45.5314 88.4035C46.5314 87.5035 47.3314 86.3035 47.8314 85.0035C49.5314 81.7035 51.1314 78.4035 52.6314 75.1035C53.3314 73.5035 54.7314 72.3035 56.4314 71.9035C65.4314 69.1035 73.7314 64.7035 81.1314 58.9035C84.3314 56.6035 86.7314 53.3035 88.1314 49.7035C89.1314 46.7035 88.0314 45.1035 84.8314 45.0035C82.0314 44.8035 79.2314 45.5035 76.8314 46.8035C74.0314 48.5035 71.1314 50.1035 68.3314 51.8035C65.8314 54.0035 62.6314 55.1035 59.3314 54.8035C58.0314 54.8035 56.8314 55.0035 55.6314 55.4035C50.3314 56.5035 45.0314 57.6035 39.2314 58.8035C46.6314 48.9035 54.7314 39.6035 63.5314 31.0035C73.9314 20.8035 85.4314 11.7035 97.8314 4.1035C100.331 2.1035 99.9314 0.203502 99.2314 0.103502Z" fill="black"/>
</g>
<defs>
<clipPath id="clip0_135_1706">
<rect width="99.762" height="125.704" fill="white"/>
</clipPath>
</defs>
</svg>
