<svg width="318" height="60" viewBox="0 0 318 60" fill="none" xmlns="http://www.w3.org/2000/svg">
<g clip-path="url(#clip0_135_1719)">
<rect width="317.561" height="60" fill="white"/>
<path d="M303.377 29.8588C303.377 37.2402 299.599 40.8981 295.092 40.8981C290.32 40.8981 288.132 37.7722 288.132 29.8588C288.132 21.9454 290.32 18.4873 295.092 18.4873C299.864 18.4873 303.377 21.9454 303.377 29.8588ZM294.76 58.5205C306.89 58.5205 311.265 54.9959 311.265 45.0878V19.2856H317.561V13.6317H303.377V20.8807H303.045C301.388 15.6271 297.146 12.7002 292.507 12.7002C284.221 12.7002 279.25 18.8854 279.25 29.8588C279.25 40.8307 284.221 46.2176 292.44 46.2176C298.273 46.2176 301.256 43.1583 302.846 38.8361H303.178V47.2815C303.178 52.069 301.256 53.599 295.291 53.599C289.856 53.599 288.662 52.6683 288.596 48.7441H280.576C279.979 55.5937 283.956 58.5205 294.76 58.5205ZM251.042 30.3241C251.042 25.5366 251.838 22.0778 253.694 20.0166C255.02 18.5532 256.809 17.9554 258.997 17.9554C261.184 17.9554 262.973 18.5539 264.299 20.0166C266.155 22.0785 266.95 25.5366 266.95 30.3241C266.95 35.1124 266.155 38.5046 264.299 40.5659C262.973 42.0285 261.184 42.5605 258.997 42.5605C256.809 42.5605 255.02 42.0285 253.694 40.5659C251.838 38.5039 251.042 35.0459 251.042 30.3241ZM242.161 30.3241C242.161 40.4327 249.187 47.8141 258.997 47.8141C268.806 47.8141 275.832 40.4327 275.832 30.3241C275.832 20.2163 268.74 12.7017 258.997 12.7017C249.253 12.7017 242.161 20.0166 242.161 30.3241ZM175.908 13.6324H157.747V19.2856H162.983L173.72 47.5478C171.997 52.6024 170.804 53.599 168.948 53.599C167.092 53.599 166.23 52.4693 166.628 49.2768H159.337C158.542 55.7276 161.392 58.5205 168.484 58.5205C174.913 58.5205 177.034 55.9939 179.685 48.679L190.357 19.2849H195.924V13.6324H180.083V19.2856H184.458L178.227 37.4393H177.83L171.599 19.2856H175.908V13.6317V13.6324ZM132.957 30.3241C132.957 22.1451 136.403 18.4873 141.242 18.4873C146.081 18.4873 148.201 22.0785 148.201 30.3241C148.201 38.5705 146.014 41.7622 141.242 41.7622C136.735 41.7622 132.957 37.972 132.957 30.3241ZM133.487 40.4327C135.078 44.5559 138.657 47.8141 143.893 47.8141C151.45 47.8141 157.084 41.4966 157.084 30.3241C157.084 19.1524 152.112 12.7017 143.827 12.7017C139.188 12.7017 134.945 15.6944 133.289 21.0805H132.957V13.6324H118.773V19.2856H125.069V52.2029H118.773V57.8561H140.447V52.2029H133.156V40.4327H133.487ZM93.2539 30.3241C93.2539 22.1451 96.701 18.4873 101.539 18.4873C106.378 18.4873 108.499 22.0785 108.499 30.3241C108.499 38.5705 106.312 41.7622 101.539 41.7622C97.0324 41.7622 93.2539 37.972 93.2539 30.3241ZM93.7844 40.4327C95.3751 44.5559 98.9546 47.8141 104.191 47.8141C111.747 47.8141 117.38 41.4966 117.38 30.3241C117.38 19.1524 112.409 12.7017 104.124 12.7017C99.4844 12.7017 95.2427 15.6944 93.5854 21.0805H93.2539V13.6324H79.0698V19.2856H85.3668V52.2029H79.0698V57.8561H100.744V52.2029H93.4529V40.4327H93.7844ZM55.0756 42.161C52.822 42.161 51.6293 40.432 51.6293 37.1729C51.6293 33.9146 52.8885 32.651 55.871 31.4539C57.5949 30.7895 60.9088 29.7915 63.03 29.1271V33.5824C63.03 38.3034 59.119 42.161 55.0763 42.161H55.0756ZM51.5634 47.8134C58.1912 47.8134 62.3671 42.4939 63.0293 38.7029H63.4273V40.5644C63.4273 43.0251 64.0902 45.2861 65.681 46.4839C66.8078 47.4146 68.73 47.8134 71.779 47.8134C75.6234 47.8134 77.479 46.882 78.8049 45.1529C80.1307 43.358 80.329 40.9639 80.329 38.171V31.3215H75.9549V39.1683C75.9549 41.3634 75.0929 42.2268 73.5022 42.2268C71.9115 42.2268 71.0495 41.4293 71.0495 39.2341V20.9488C71.0495 18.022 69.3929 15.0966 66.2115 13.8995C64.1568 13.0346 61.1737 12.7024 57.3293 12.7024C46.9237 12.7024 43.6098 16.4268 43.6098 21.5473C43.6098 22.4115 43.6756 23.3422 43.808 24.2737H51.4302C51.0329 19.2198 52.4246 17.4907 57.3293 17.4907C61.2402 17.4907 63.0293 18.5546 63.0293 22.478C63.0293 25.271 62.3005 26.2024 60.18 26.6678C58.0581 27.0666 54.3468 27.7317 51.2978 28.5959C46.9895 29.9927 42.9461 32.52 42.9461 38.3715C42.9461 45.5539 47.5859 47.8149 51.5627 47.8149L51.5634 47.8134ZM34.7268 21.6124C34.7268 15.3615 31.0822 12.7017 26.2434 12.7017C21.4046 12.7017 17.8259 15.8268 15.0417 21.2802H14.5778V0H0V5.65244H6.49537V41.2302H0.264878V46.8827H18.8239V41.2302H14.5829V30.3241C14.5829 26.7995 15.3783 24.0066 16.5051 22.2776C17.9627 20.1498 19.7524 18.6205 22.2051 18.6205C25.3866 18.6205 26.5134 20.1498 26.5134 23.2083V41.2302H22.4041V46.8827H40.4993V41.2302H34.7327V21.6132H34.7283L34.7268 21.6124Z" fill="black"/>
<path d="M26.2434 12.7017C31.0822 12.7017 34.7276 15.3615 34.7276 21.6124H34.732V41.2302H40.4978V46.8827H22.4027V41.2302H26.5127V23.2083C26.5127 20.1498 25.3859 18.6205 22.2044 18.6205C19.7517 18.6205 17.9627 20.1498 16.5044 22.2776C15.3776 24.0066 14.5822 26.7995 14.5822 30.3241V41.2302H18.8239V46.8827H0.264878V41.2302H6.49537V5.65244H0V0H14.5778V21.2802H15.0417C17.8259 15.8276 21.4046 12.7017 26.2434 12.7017ZM237.73 33.0871V35.0151C237.73 42.6629 232.693 47.9832 223.812 47.9832C213.405 47.9832 206.843 41.2002 206.843 30.4266C206.843 20.3854 213.538 12.8707 222.088 12.8707C226.131 12.8707 228.716 14.8654 230.838 18.1902H231.235V13.8015H237.73V26.3049H232.759C232.295 23.4454 228.716 17.992 223.679 17.992C218.178 17.992 215.592 21.7822 215.592 29.7629C215.592 38.408 218.707 43.0624 224.805 43.0624C230.307 43.0624 232.693 39.5385 232.693 34.6837V33.0878L237.73 33.0871Z" fill="black"/>
</g>
<defs>
<clipPath id="clip0_135_1719">
<rect width="317.561" height="60" fill="white"/>
</clipPath>
</defs>
</svg>
