<svg width="550" height="60" viewBox="0 0 550 60" fill="none" xmlns="http://www.w3.org/2000/svg">
<g clip-path="url(#clip0_135_1727)">
<rect width="550" height="60" fill="white"/>
<path d="M0.125 1.2627H10.6203V45.7428C10.6203 48.3252 11.1866 50.991 14.2529 50.991C17.1619 50.991 18.1279 48.4872 18.1279 45.7428V1.2627H27.0085V44.3697C27.0085 55.6728 22.0019 59.8698 13.608 59.8698C5.53504 59.8698 0.125 55.6728 0.125 44.3697V1.2627Z" fill="#231F20"/>
<path d="M49.9423 25.6415H52.0398C55.9139 25.6415 57.3665 21.7675 57.3665 17.65C57.3665 11.4341 55.1071 9.65951 51.5569 9.65951H49.9423V25.6415ZM39.447 1.26367H51.2321C61.2453 1.26367 67.8618 5.46064 67.8618 17.5705C67.8618 22.4124 66.4092 28.8707 61.7273 31.616L67.9452 58.74H57.3665L52.4432 34.0374H49.9423V58.74H39.447V1.26367Z" fill="#231F20"/>
<path d="M88.861 50.3432C95.1574 50.3432 96.1271 47.8404 96.1271 41.8669C96.1271 36.6207 94.8326 33.633 88.861 33.7135V50.3432ZM88.861 24.8337C94.1091 24.8337 95.4775 22.4114 95.4775 17.2447C95.4775 10.7078 94.1091 9.5771 88.861 9.65854V24.8337ZM78.3657 1.2627H91.2833C97.7417 1.2627 105.491 4.81478 105.491 15.793C105.491 22.2513 102.585 27.2551 96.1271 28.6282V28.7892C103.31 30.4843 106.618 35.4891 106.618 42.7552C106.618 53.2504 99.5144 58.7391 91.7654 58.7391H78.3657V1.2627Z" fill="#231F20"/>
<path d="M129.149 10.1415H128.987L125.678 37.5885H132.216L129.149 10.1415ZM122.449 1.2627H137.626L144.729 58.7391H134.638L133.106 45.9843H124.63L123.177 58.7391H114.375L122.449 1.2627Z" fill="#231F20"/>
<path d="M154.259 1.2627H164.513L174.118 31.615H174.28V1.2627H182.674V58.7391H174.521L163.301 23.9474H163.139V58.7391H154.259V1.2627Z" fill="#231F20"/>
<path d="M226.761 36.0551C226.761 48.487 228.213 50.9907 230.635 50.9907C233.057 50.9907 234.51 48.487 234.51 36.0551V23.9472C234.51 11.5144 233.057 9.01155 230.635 9.01155C228.213 9.01155 226.761 11.5144 226.761 23.9472V36.0551ZM230.635 0.130859C239.92 0.130859 245.975 7.31552 245.975 30.0002C245.975 52.6849 239.92 59.8695 230.635 59.8695C221.351 59.8695 215.296 52.6849 215.296 30.0002C215.296 7.31552 221.351 0.130859 230.635 0.130859Z" fill="#231F20"/>
<path d="M256.877 1.2627H267.372V45.7428C267.372 48.3252 267.939 50.991 271.005 50.991C273.91 50.991 274.88 48.4872 274.88 45.7428V1.2627H283.761V44.3697C283.761 55.6728 278.754 59.8698 270.36 59.8698C262.287 59.8698 256.877 55.6728 256.877 44.3697V1.2627Z" fill="#231F20"/>
<path d="M301.039 10.1415H292V1.2627H320.577V10.1415H311.534V58.7391H301.039V10.1415Z" fill="#231F20"/>
<path d="M329.22 1.2627H352.711V10.1415H339.715V25.4805H349.32V34.8442H339.715V58.7391H329.22V1.2627Z" fill="#231F20"/>
<path fill-rule="evenodd" clip-rule="evenodd" d="M361.755 1.2627H372.25V58.739H361.755V1.2627Z" fill="#231F20"/>
<path d="M389.529 10.1415H380.49V1.2627H409.067V10.1415H400.024V58.7391H389.529V10.1415Z" fill="#231F20"/>
<path d="M422.55 10.1415H413.511V1.2627H442.087V10.1415H433.045V58.7391H422.55V10.1415Z" fill="#231F20"/>
<path d="M450.731 1.2627H474.464V10.1415H461.227V24.8337H470.994V34.1993H461.227V49.8584H475.031V58.7391H450.731V1.2627Z" fill="#231F20"/>
<path d="M495.701 25.6415H497.803C501.678 25.6415 503.129 21.7675 503.129 17.65C503.129 11.4341 500.87 9.65951 497.316 9.65951H495.701V25.6415ZM485.206 1.26367H496.996C507.004 1.26367 513.625 5.46064 513.625 17.5705C513.625 22.4124 512.173 28.8707 507.486 31.616L513.704 58.74H503.129L498.207 34.0374H495.701V58.74H485.206V1.26367Z" fill="#231F20"/>
<path d="M531.306 42.1101C531.306 45.3392 531.306 50.9907 535.83 50.9907C539.301 50.9907 540.512 47.7616 540.512 45.4207C540.512 35.1669 521.461 32.826 521.461 15.7928C521.461 7.15549 526.142 0.130859 535.022 0.130859C544.465 0.130859 548.098 7.31553 548.343 17.6489H538.976C538.976 14.4216 538.976 9.01155 534.781 9.01155C532.276 9.01155 530.823 11.111 530.823 14.2597C530.823 24.0258 549.875 27.3364 549.875 44.0476C549.875 52.8468 544.869 59.8695 535.427 59.8695C524.203 59.8695 521.943 50.0211 521.943 42.1101H531.306Z" fill="#231F20"/>
</g>
<defs>
<clipPath id="clip0_135_1727">
<rect width="550" height="60" fill="white"/>
</clipPath>
</defs>
</svg>
